Motion_sv03_j
version=1
nRows=10
nColumns=43
inDegrees=yes
endheader
time	pelvis_tilt	pelvis_list	pelvis_rotation	pelvis_tx	pelvis_ty	pelvis_tz	hip_flexion_r	hip_adduction_r	hip_rotation_r	knee_angle_r	ankle_angle_r	subtalar_angle_r	mtp_angle_r	hip_flexion_l	hip_adduction_l	hip_rotation_l	knee_angle_l	ankle_angle_l	subtalar_angle_l	mtp_angle_l	lumbar_extension	lumbar_bending	lumbar_rotation	neck_flexion	neck_lateral_bending	neck_rotation	arm_flex_r	arm_add_r	arm_rot_r	elbow_flex_r	pro_sup_r	wrist_flex_r	wrist_dev_r	hand_finger_flex_r	arm_flex_l	arm_add_l	arm_rot_l	elbow_flex_l	pro_sup_l	wrist_flex_l	wrist_dev_l	hand_finger_flex_l
      2.89000000	     -3.45101942	      5.31414162	    -79.73804443	     -0.03244456	      0.85778797	      0.09209214	     41.86161258	     -2.74582079	     -3.42424408	    -48.15469402	     13.75081670	    -11.37964272	     -8.84060436	    -17.66379872	    -17.37530744	    -18.59683158	    -34.75898191	     -8.92839435	     10.05920563	     22.25149642	    -32.38432801	     27.85635055	      5.04059339	     34.68755172	    -13.02066824	     12.73281034	     25.21618471	    -28.60408678	     -5.07909763	    116.41287803	    159.48298760	    -14.82526536	     -5.33564017	    -29.81433972	     54.14307199	    -26.54116912	     18.42030735	    117.38018017	    129.33307474	    -44.36814354	    -12.45489301	     18.82129157
      2.89250000	     -3.24240664	      5.82714828	    -79.50114948	     -0.03273599	      0.85798140	      0.09514880	     42.19128357	     -3.02786509	     -3.33066955	    -48.26089687	     13.89742772	    -11.56041439	     -8.94651179	    -15.87472758	    -17.04958466	    -16.58326302	    -36.87626540	     -9.62634957	      8.28757573	     16.88706352	    -31.81795509	     27.92228822	      4.95529571	     34.75477240	    -13.02357550	     12.84551869	     26.58564043	    -29.09405025	     -4.47199056	    116.21235905	    160.14663971	    -14.53497812	     -5.37080326	    -30.51661573	     54.62932943	    -26.37662084	     18.60164952	    117.30414177	    129.41179454	    -44.30046536	    -12.41275467	     18.40004667
      2.89500000	     -3.15515779	      6.30633080	    -79.37548435	     -0.03329596	      0.85808660	      0.09850667	     42.51342450	     -3.10136514	     -3.20166271	    -48.39898165	     14.10428559	    -11.61985576	     -9.00166212	    -14.21533868	    -16.78582749	    -14.84443793	    -38.95445503	    -10.01620282	      6.80630336	     10.15370422	    -31.29976290	     28.03007686	      5.08589687	     34.80712250	    -13.16113701	     12.95472891	     27.91643450	    -29.62011110	     -3.89798725	    115.96332662	    160.74462891	    -14.10975683	     -5.44970343	    -31.43937869	     55.11730477	    -26.16590836	     18.84692389	    117.17632407	    129.40879473	    -44.11501003	    -12.33867826	     17.92170591
      2.89750000	     -2.75086743	      6.70222459	    -79.16079466	     -0.03352272	      0.85838764	      0.10153582	     42.75333881	     -3.52814101	     -2.95762650	    -48.63121656	     14.30411327	    -11.78785412	     -9.00703521	    -12.59973835	    -16.18229391	    -12.96000179	    -41.00314373	    -10.83642353	      5.48407459	      7.09727201	    -30.83109393	     27.90908549	      4.84699942	     34.89267552	    -13.16631241	     13.06302497	     29.42079034	    -30.02762130	     -3.13010210	    115.58599805	    161.26212175	    -14.00790278	     -5.46874977	    -31.96863011	     55.66897820	    -26.17204857	     19.08363453	    117.06944782	    129.36788054	    -44.19773149	    -12.33587572	     17.60585774
      2.90000000	     -2.50272342	      7.19794542	    -78.92246970	     -0.03379480	      0.85847166	      0.10457363	     43.10437785	     -3.82966005	     -2.76515198	    -48.83282417	     14.44671045	    -11.98004351	     -9.01720894	    -10.84631075	    -15.68450361	    -11.13467946	    -43.12722860	    -11.27107359	      4.47071127	      3.28308350	    -30.23879976	     27.91405627	      4.68530372	     34.93683540	    -13.18029993	     13.16140571	     30.88500475	    -30.45664469	     -2.38593633	    115.21800422	    161.81452606	    -13.79266509	     -5.47384527	    -32.61236669	     56.12615517	    -26.11203764	     19.24528695	    116.99241397	    129.28457390	    -44.14356736	    -12.33858137	     17.26225441
      2.90250000	     -2.29203972	      7.61609038	    -78.77281245	     -0.03417740	      0.85862506	      0.10774263	     43.36813726	     -4.02066470	     -2.52640765	    -49.00704309	     14.60116779	    -12.13824271	     -9.01751157	     -9.25101048	    -15.18474734	     -9.52064626	    -45.21269835	    -11.49570423	      3.64494164	     -0.03911343	    -29.75667392	     27.90531045	      4.63703934	     34.92405562	    -13.11936892	     13.22297660	     32.35903718	    -30.89596848	     -1.63270238	    114.81591461	    162.26773514	    -13.59091607	     -5.48478307	    -33.26472010	     56.56182554	    -26.04082138	     19.40367220	    116.91819650	    129.12044742	    -44.08803299	    -12.33296309	     16.90522255
      2.90500000	     -2.08152607	      7.75971734	    -78.73140083	     -0.03477319	      0.85925391	      0.11119444	     43.30612849	     -4.05520921	     -2.22070393	    -49.11511377	     14.65281167	    -12.60339637	     -9.04030142	     -8.07721573	    -14.66840605	     -8.07098755	    -47.15205909	    -11.75274530	      2.83584606	     -1.13810263	    -29.62498289	     27.87727076	      4.77231913	     34.89539750	    -13.12201417	     13.21712978	     33.82655926	    -31.33831597	     -0.91460211	    114.36057556	    162.57152885	    -13.61495804	     -5.51853906	    -33.62595096	     57.04982544	    -25.97001011	     19.61367575	    116.82892885	    128.91182548	    -44.10457692	    -12.24326529	     16.71218130
      2.90750000	     -1.82194863	      8.14211356	    -78.59706648	     -0.03507264	      0.85935944	      0.11434270	     43.55232432	     -4.28832559	     -1.94424883	    -49.34553026	     14.83363566	    -12.75919993	     -9.03572602	     -6.55589886	    -14.06694284	     -6.63069923	    -49.26604322	    -11.56172373	      2.37536886	     -1.98544074	    -29.15789434	     27.81916221	      4.66944350	     34.83329364	    -13.04638650	     13.26070330	     35.37797071	    -31.73234417	     -0.03908391	    113.84829845	    162.93482548	    -13.56299718	     -5.45037801	    -33.99451692	     57.46291952	    -25.95876050	     19.73800318	    116.74702210	    128.67343844	    -44.15373752	    -12.22813892	     16.48777210
      2.91000000	     -1.63571912	      8.19005063	    -78.72130398	     -0.03602231	      0.85987723	      0.11786559	     43.45138132	     -4.21279218	     -1.64002189	    -49.53148438	     15.01219179	    -12.87878319	     -9.01944189	     -5.56970578	    -13.62296287	     -5.66188696	    -51.25667013	    -11.14996083	      2.10475217	     -2.12501589	    -29.18655151	     27.69814153	      4.98095995	     34.72088002	    -12.87309720	     13.15936022	     36.85225734	    -32.13199805	      0.63210532	    113.37377500	    163.15353760	    -13.40759171	     -5.50382352	    -34.11817324	     58.01941974	    -25.94172858	     19.93078443	    116.60269498	    128.60893131	    -44.08188885	    -12.27337446	     16.40707610
      2.91250000	     -1.35157441	      8.68462924	    -78.49829762	     -0.03590137	      0.85997730	      0.12092479	     43.77440541	     -4.57266820	     -1.40358617	    -49.71773164	     15.16130163	    -13.12447518	     -9.03311296	     -3.88847104	    -12.87440532	     -4.18857354	    -53.40707820	    -10.58984924	      1.78153579	     -2.12916061	    -28.56206523	     27.69958770	      4.75392082	     34.76725952	    -12.95853912	     13.33110972	     38.45995235	    -32.51704738	      1.64980697	    112.81564532	    163.60176311	    -13.45893022	     -5.28176489	    -34.58291500	     58.24882630	    -25.94197249	     19.94804380	    116.60407297	    128.18048298	    -44.27602293	    -12.22083268	     16.12586278
